# xmcd CD database file
#
# Track frame offsets:
#	151
#	19005
#	64307
#	90564
#	117091
#	132575
#	164081
#
# Disc length: 2387 seconds
#
# Revision: 0
# Processed by: cddbd v1.5.2PL0 Copyright (c) Steve Scherf et al.
# Submitted via: CDex 1.70beta2
#
DISCID=5e095107
DTITLE=Des Zes Winden - Live At The Bim And More
DYEAR=1986
DGENRE=Jazz
TTITLE0=Kampen am 7 eren (John Tchicai)
TTITLE1=D sharp (Dies Le Duc)
TTITLE2=Duke's little fingers (Ad Peijnenburg)
TTITLE3=Iman Bayildi (Klaas Hekman)
TTITLE4=Increased Cosmopo (John Tchicai-arr. Ad Peijnenburg)
TTITLE5=56 Beats and more (Paul Termos)
TTITLE6=Swamijis mood (John Tchicai)
EXTD=YEAR: 1986
EXTT0=
EXTT1=
EXTT2=
EXTT3=
EXTT4=
EXTT5=
EXTT6=
PLAYORDER=
